<?xml version="1.0" encoding="UTF-8"?><svg id="Laag_1" xmlns="http://www.w3.org/2000/svg" xmlns:xlink="http://www.w3.org/1999/xlink" viewBox="0 0 841.89 595.28"><defs><style>.cls-1{fill:#d0e597;}.cls-2{fill:#b3d456;}.cls-3{fill:#fff;}.cls-4{fill:#c0dc73;}.cls-5{fill:none;}.cls-6{fill:#003880;}.cls-7{fill:#b7d65f;}.cls-8{fill:#a5cc36;}.cls-9{fill:#004896;}.cls-10{fill:#aed14a;}.cls-11{clip-path:url(#clippath);}.cls-12{fill:#252955;}.cls-13{fill:#9ac61e;}</style><clipPath id="clippath"><path class="cls-5" d="M672.8,129.08h-127.47c-20.58,0-37.33,18.62-37.33,41.5v254.11c0,22.89,16.74,41.5,37.33,41.5h127.47c20.58,0,37.33-18.62,37.33-41.5v-254.11c0-22.89-16.74-41.5-37.33-41.5ZM692.89,424.69c0,12.32-9.01,22.34-20.09,22.34h-127.47c-11.08,0-20.09-10.02-20.09-22.34v-254.11c0-12.32,9.01-22.34,20.09-22.34h18.82v4.94c0,7.86,5.73,14.23,12.8,14.23h64.24c7.07,0,12.8-6.37,12.8-14.23v-4.94h18.82c11.08,0,20.09,10.02,20.09,22.34v254.11Z"/></clipPath></defs><path class="cls-6" d="M124.72,269.8v-53.36h10.84v44.2h20.64v9.16h-31.48Z"/><path class="cls-6" d="M201.6,250.52c0,2.38-.4,4.8-1.2,7.26-.8,2.46-2.02,4.63-3.66,6.51-1.64,1.88-3.78,3.45-6.42,4.71-2.64,1.26-5.74,1.9-9.29,1.9-6.05,0-11.01-1.93-14.86-5.8-3.85-3.86-5.78-8.86-5.78-14.99s1.93-11.29,5.78-15.2c3.85-3.9,8.82-5.85,14.9-5.85s10.99,1.95,14.8,5.85c3.81,3.9,5.72,9.11,5.72,15.61ZM171.25,249.88c0,4.33.94,7.6,2.81,9.83,1.88,2.23,4.16,3.34,6.87,3.34,3.15,0,5.6-1.21,7.35-3.64,1.75-2.43,2.63-5.52,2.63-9.27,0-3.4-.84-6.48-2.51-9.23-1.68-2.75-4.1-4.13-7.28-4.13-1.43,0-2.7.28-3.83.84-1.13.56-2.11,1.38-2.96,2.46-.85,1.08-1.53,2.29-2.03,3.64-.7,1.95-1.05,4-1.05,6.15Z"/><path class="cls-6" d="M250.04,250.52c0,2.38-.4,4.8-1.2,7.26-.8,2.46-2.02,4.63-3.66,6.51-1.64,1.88-3.78,3.45-6.42,4.71-2.64,1.26-5.74,1.9-9.29,1.9-6.05,0-11.01-1.93-14.86-5.8-3.85-3.86-5.78-8.86-5.78-14.99s1.93-11.29,5.78-15.2c3.85-3.9,8.82-5.85,14.9-5.85s10.99,1.95,14.8,5.85c3.81,3.9,5.72,9.11,5.72,15.61ZM219.69,249.88c0,4.33.94,7.6,2.81,9.83,1.88,2.23,4.16,3.34,6.87,3.34,3.15,0,5.6-1.21,7.35-3.64,1.75-2.43,2.63-5.52,2.63-9.27,0-3.4-.84-6.48-2.51-9.23-1.68-2.75-4.1-4.13-7.28-4.13-1.43,0-2.7.28-3.83.84-1.13.56-2.11,1.38-2.96,2.46-.85,1.08-1.53,2.29-2.03,3.64-.7,1.95-1.05,4-1.05,6.15Z"/><path class="cls-6" d="M284.9,236.45v-6.23h9.87v34.78c0,3.75-.31,6.74-.94,8.95-.63,2.21-1.45,4.02-2.48,5.42-1.03,1.4-2.29,2.62-3.79,3.66s-3.1,1.83-4.8,2.38c-2.63.8-5.5,1.2-8.63,1.2-4.88,0-9.51-.91-13.88-2.74l.9-9.01c1.7,1.07,3.7,1.93,5.98,2.55,2.29.62,4.4.94,6.32.94,2.43,0,4.6-.57,6.53-1.71,1.93-1.14,3.27-2.73,4.03-4.77.76-2.04,1.17-5.37,1.22-10-1.5,2.7-3.43,4.71-5.78,6.02-2.35,1.31-4.8,1.97-7.35,1.97-2.8,0-5.46-.76-7.97-2.29-2.51-1.53-4.47-3.85-5.87-6.96-1.4-3.11-2.1-6.83-2.1-11.16,0-6.35,1.57-11.27,4.71-14.75,3.14-3.48,7-5.22,11.58-5.22,2.08,0,4.02.36,5.83,1.09,1.81.73,3.31,1.65,4.48,2.78.83.8,1.54,1.83,2.14,3.08ZM266.82,248.64c0,4.3.84,7.48,2.51,9.53,1.68,2.05,3.75,3.08,6.23,3.08s4.65-1.02,6.45-3.06c1.8-2.04,2.7-4.86,2.7-8.46s-.9-6.68-2.7-8.78c-1.8-2.1-3.93-3.15-6.38-3.15-1.6,0-3.1.46-4.5,1.37-1.4.91-2.47,2.23-3.21,3.96-.74,1.73-1.11,3.56-1.11,5.52Z"/><path class="cls-6" d="M314.62,230.22l.26,6.04c1.3-2.1,3.04-3.73,5.22-4.9,2.18-1.16,4.58-1.74,7.2-1.74,2.93,0,5.38.71,7.35,2.14,1.5,1.1,2.74,2.73,3.72,4.88.6-1.28,1.34-2.33,2.21-3.15,1.25-1.2,2.81-2.16,4.69-2.89,1.88-.72,3.8-1.09,5.78-1.09,2.35,0,4.4.5,6.15,1.5,1.75,1,3.09,2.29,4.01,3.86.68,1.15,1.21,2.9,1.61,5.25.27,1.55.41,3.83.41,6.83v22.85h-10.32v-21.8c0-2.83-.2-4.85-.6-6.06-.4-1.21-1.09-2.15-2.08-2.81-.99-.66-2.07-.99-3.25-.99-1.35,0-2.65.46-3.9,1.37-1.25.91-2.18,2.29-2.78,4.13s-.9,3.62-.9,5.35v20.82h-10.32v-23.75c0-2.68-.56-4.67-1.69-5.97-1.13-1.3-2.54-1.95-4.24-1.95-1.98,0-3.75.96-5.33,2.87-1.58,1.91-2.36,4.9-2.36,8.95v19.85h-10.32v-29.79l-.15-6.57c-.03-1.15-.09-2.23-.19-3.23h9.79Z"/><path class="cls-6" d="M397.2,269.8l-.26-5.85c-.88,1.85-2.47,3.41-4.78,4.67-2.31,1.26-4.9,1.9-7.75,1.9-2.48,0-4.77-.51-6.87-1.54s-3.72-2.5-4.86-4.41c-1.14-1.91-1.71-4.11-1.71-6.59,0-4.48,2.04-7.85,6.12-10.13,3.13-1.73,7.84-2.59,14.15-2.59,1.58,0,3.36.09,5.37.26.02-.47.04-.84.04-1.09,0-2.48-.73-4.4-2.18-5.76-1.45-1.36-3.68-2.04-6.68-2.04-2.18,0-4.38.43-6.6,1.28-2.23.85-4.11,1.9-5.67,3.15l-.26-8.89c1.33-.68,3.33-1.3,6-1.88,2.68-.58,5.32-.86,7.92-.86,3.33,0,6.15.46,8.46,1.39,2.31.93,4.2,2.33,5.65,4.2,1,1.33,1.68,3.06,2.03,5.2.35,2.14.53,5.27.53,9.4v5.85l.11,5.78.15,6.08.19,2.48h-9.08ZM396.68,251.76c-1.28-.1-2.14-.15-2.59-.15-2.5,0-4.8.23-6.89.68-2.09.45-3.61,1.22-4.56,2.31s-1.43,2.33-1.43,3.73c0,1.5.54,2.74,1.61,3.71s2.56,1.46,4.47,1.46c1.68,0,3.31-.49,4.9-1.48,1.59-.99,2.73-2.27,3.43-3.85.7-1.58,1.05-3.71,1.05-6.42Z"/><path class="cls-6" d="M425.87,230.22l.26,6.04c2.83-4.45,7.09-6.68,12.8-6.68,2.15,0,4.08.31,5.8.94s3.12,1.48,4.22,2.57c1.1,1.09,1.93,2.28,2.48,3.58.55,1.3.95,3.14,1.2,5.52.1,1.13.16,4.1.19,8.93v18.69h-10.24v-19.85c0-4.3-.37-7.2-1.13-8.71-1.15-2.25-3.06-3.38-5.74-3.38-1.68,0-3.25.48-4.73,1.43-1.48.95-2.55,2.3-3.23,4.05-.68,1.75-1.01,4.31-1.01,7.69v18.76h-10.32v-31.78c0-2.73-.11-5.33-.34-7.8h9.79Z"/><path class="cls-13" d="M174.48,350.99l10.13-42.32h10.51l-14.07,53.36h-13.77l-9.79-42.7-9.61,42.7h-13.88l-14.22-53.36h11.29l10.06,41.27,9.23-41.27h14.6l9.53,42.32Z"/><path class="cls-13" d="M211.88,315.23h-10.32v-9.68h10.32v9.68ZM201.57,362.02v-39.59h10.32v39.59h-10.32Z"/><path class="cls-13" d="M249.14,328.14v-23.75h10.13v57.63h-9.76v-5.78c-1.33,1.95-3.08,3.49-5.25,4.61-2.18,1.13-4.58,1.69-7.2,1.69-2.18,0-4.12-.34-5.83-1.03-1.71-.69-3.11-1.51-4.2-2.46-1.09-.95-2.1-2.17-3.04-3.66-.94-1.49-1.71-3.44-2.31-5.85-.6-2.41-.9-5.01-.9-7.79,0-6.18,1.42-11.06,4.26-14.65,2.84-3.59,6.72-5.38,11.65-5.38,2.7,0,5.03.51,6.98,1.54,1.95,1.03,3.78,2.65,5.48,4.88ZM239.91,330.16c-2.38,0-4.39.99-6.04,2.98s-2.48,5.04-2.48,9.14.88,7.37,2.65,9.36c1.76,1.99,3.8,2.98,6.1,2.98,2.43,0,4.51-1.02,6.27-3.06,1.75-2.04,2.63-5.07,2.63-9.1,0-3.58-.8-6.52-2.4-8.84-1.6-2.31-3.84-3.47-6.72-3.47Z"/><path class="cls-13" d="M296.23,328.66v-6.23h9.87v34.78c0,3.75-.31,6.74-.94,8.95-.63,2.21-1.45,4.02-2.48,5.42-1.03,1.4-2.29,2.62-3.79,3.66s-3.1,1.83-4.8,2.38c-2.63.8-5.5,1.2-8.63,1.2-4.88,0-9.51-.91-13.88-2.74l.9-9.01c1.7,1.08,3.7,1.93,5.98,2.55,2.29.63,4.4.94,6.32.94,2.43,0,4.6-.57,6.53-1.71,1.93-1.14,3.27-2.73,4.03-4.76.76-2.04,1.17-5.37,1.22-10-1.5,2.7-3.43,4.71-5.78,6.02-2.35,1.31-4.8,1.97-7.35,1.97-2.8,0-5.46-.76-7.97-2.29-2.51-1.53-4.47-3.85-5.87-6.96-1.4-3.12-2.1-6.84-2.1-11.16,0-6.35,1.57-11.27,4.71-14.75,3.14-3.48,7-5.22,11.58-5.22,2.08,0,4.02.36,5.83,1.09,1.81.73,3.31,1.65,4.48,2.78.83.8,1.54,1.83,2.14,3.08ZM278.15,340.86c0,4.3.84,7.48,2.51,9.53s3.75,3.08,6.23,3.08,4.65-1.02,6.45-3.06c1.8-2.04,2.7-4.86,2.7-8.46s-.9-6.68-2.7-8.78c-1.8-2.1-3.93-3.15-6.38-3.15-1.6,0-3.1.46-4.5,1.37-1.4.91-2.47,2.23-3.21,3.96-.74,1.73-1.11,3.57-1.11,5.52Z"/><path class="cls-13" d="M351.2,345.4h-26.79c.07,1.78.62,3.45,1.63,5.01s2.32,2.73,3.92,3.51c1.6.78,3.56,1.16,5.89,1.16,2.1,0,4.18-.29,6.23-.88,2.05-.59,4.23-1.53,6.53-2.83l.11,8.44c-.9.68-2.7,1.36-5.38,2.06-2.69.7-5.45,1.05-8.27,1.05-4.2,0-7.86-.78-10.98-2.35-3.11-1.56-5.5-3.97-7.15-7.22s-2.48-7-2.48-11.26.79-7.92,2.38-11.14,3.9-5.66,6.92-7.3,6.37-2.46,10.02-2.46c3.9,0,7.24.97,10.02,2.91,2.78,1.94,4.72,4.57,5.84,7.9,1.11,3.33,1.67,7.09,1.67,11.29,0,.48-.04,1.18-.11,2.1ZM324.34,338.27h17.34c-.15-3.28-.99-5.73-2.51-7.35-1.53-1.63-3.55-2.44-6.08-2.44-2.35,0-4.19.71-5.52,2.14-1.88,1.95-2.95,4.5-3.23,7.66Z"/><path class="cls-13" d="M362.8,330.27h-7.54v-7.66h7.66v-8.1l9.87-3.26v11.37h9.23v7.66h-9.23v14.48c0,3.48.3,5.7.9,6.68,1.03,1.65,2.73,2.48,5.1,2.48,1.2,0,2.43-.2,3.68-.6l.26,8.18c-2.03.65-4.35.98-6.98.98-1.9,0-3.56-.22-4.97-.66-1.41-.44-2.62-1.05-3.62-1.84-1-.79-1.8-1.67-2.4-2.66-.6-.99-1.1-2.42-1.5-4.3-.3-1.38-.45-3.41-.45-6.12v-16.62Z"/><path class="cls-13" d="M413.68,323.15l-.71,7.84c-3.13-1.2-5.95-1.8-8.48-1.8s-4.22.44-5.37,1.33c-1.15.89-1.73,1.87-1.73,2.95,0,.83.34,1.54,1.03,2.14.69.6,1.29.93,1.82.98.13.02.25.05.38.07l7.2,2.51c2.38.83,4.23,2.18,5.55,4.05,1.33,1.88,1.99,4.15,1.99,6.83,0,2.23-.41,4.08-1.24,5.57-.83,1.49-1.87,2.73-3.13,3.73s-2.52,1.74-3.77,2.21c-2,.77-4.59,1.16-7.77,1.16-4,0-8.07-.59-12.19-1.76l.64-8.56c3.98,1.65,7.3,2.48,9.98,2.48,2.5,0,4.4-.5,5.7-1.5.93-.7,1.39-1.73,1.39-3.08,0-.88-.21-1.59-.64-2.14-.43-.55-1.1-.98-2.03-1.28l-4.47-1.43c-4.05-1.3-6.83-2.88-8.33-4.73-1.5-1.85-2.25-4.18-2.25-6.98,0-3.38,1.22-6.12,3.68-8.22,3.08-2.63,7.13-3.94,12.16-3.94,3.23,0,6.75.51,10.58,1.54Z"/><rect class="cls-3" x="516.62" y="138.66" width="184.88" height="317.96" rx="46.25" ry="46.25"/><ellipse class="cls-6" cx="608.8" cy="147.95" rx="6.01" ry="6.68"/><g class="cls-11"><polygon class="cls-6" points="773.58 490.88 627.34 490.88 671.21 115.72 773.58 107.01 773.58 490.88"/><polygon class="cls-9" points="484.76 115.14 692.63 115.14 630.27 490.3 484.76 499.01 484.76 115.14"/><ellipse class="cls-6" cx="609.06" cy="148.24" rx="8.36" ry="9.29"/></g><ellipse class="cls-12" cx="609.06" cy="148.24" rx="7.83" ry="8.71"/><rect class="cls-7" x="537.79" y="241.58" width="67.24" height="58.28" rx="8.98" ry="8.98"/><rect class="cls-13" x="537.79" y="175.73" width="142.55" height="58.28" rx="13.08" ry="13.08"/><rect class="cls-8" x="611.74" y="241.75" width="67.24" height="58.28" rx="8.98" ry="8.98"/><rect class="cls-2" x="538.46" y="307.77" width="67.24" height="58.28" rx="8.98" ry="8.98"/><rect class="cls-4" x="612.42" y="307.94" width="67.24" height="58.28" rx="8.98" ry="8.98"/><rect class="cls-1" x="538.2" y="374.13" width="67.24" height="58.28" rx="8.98" ry="8.98"/><rect class="cls-10" x="612.16" y="374.3" width="67.24" height="58.28" rx="8.98" ry="8.98"/></svg>