<?xml version="1.0" encoding="UTF-8"?><svg id="Laag_1" xmlns="http://www.w3.org/2000/svg" viewBox="0 0 32 32"><defs><style>.cls-1{fill:#fff;}.cls-2{fill:#f90000;}.cls-3{fill:#3e47ff;}.cls-4{fill:#00f2e6;}</style></defs><path class="cls-3" d="M25,4.58l1.67-1.46,4.17,7.51s-4.9,2.4-5.84,4.9h2.92s-.94,6.88-.52,7.3l-4.69.52,1.88,6.15s-6.26-.42-7.51,0l.83-1.67s-5.11,5.32-10.01,2.81C3.01,28.14-.23,24.8,1.76,15.94,3.74,7.08,10.93,3.12,10.93,3.12c0,0,10.11-6.36,14.07,1.46Z"/><path class="cls-2" d="M10.71,31.93c-1,0-2.04-.21-3.08-.75C2.29,28.46-.85,24.8,1.16,15.81,3.15,6.9,10.14,2.86,10.62,2.59c.39-.24,5.75-3.5,10.34-2.23,1.77.49,3.18,1.59,4.21,3.26l1.1-.96c.14-.12.33-.17.51-.14.18.03.34.14.43.31l4.17,7.51c.08.15.1.32.05.48-.05.16-.16.29-.31.37-1.11.54-3.85,2.13-5.06,3.74h1.87c.18,0,.35.08.46.21.12.13.17.31.15.49-.39,2.87-.73,6.28-.6,6.91.09.15.11.34.05.51-.08.22-.28.38-.51.41l-3.96.44,1.66,5.45c.06.19.02.4-.11.56-.13.16-.32.25-.52.23-2.37-.16-6.44-.31-7.27-.03-.23.08-.49,0-.66-.18-.03-.04-.06-.07-.08-.11-1.41,1.01-3.52,2.15-5.83,2.15ZM18.71,1.29c-3.66,0-7.41,2.32-7.45,2.34,0,0-.02.01-.03.02-.07.04-6.98,3.95-8.87,12.42-1.84,8.25.86,11.48,5.83,14.02,4.43,2.26,9.24-2.64,9.29-2.69.21-.22.55-.25.79-.08.25.17.33.5.19.77l-.32.63c1.63-.1,4.17.01,5.6.1l-1.62-5.31c-.05-.17-.03-.36.07-.52.1-.15.26-.25.44-.27l4.06-.45c-.04-.88.06-2.61.52-6.15h-2.22c-.2,0-.39-.1-.5-.26-.11-.17-.14-.38-.07-.56.82-2.19,4.2-4.2,5.57-4.94l-3.5-6.29-1.1.96c-.14.12-.33.18-.52.14-.19-.04-.34-.16-.43-.32-.88-1.74-2.17-2.86-3.82-3.31-.63-.17-1.28-.25-1.93-.25ZM27.83,22.39s0,0,0,0c0,0,0,0,0,0Z"/><path class="cls-3" d="M16,22.61s-2.36.83-4.34.52c0,0,2.4-3.44,1.04-6.05,0,0,7.3-2.09,15.22-1.56"/><path class="cls-2" d="M12.62,23.82c-.35,0-.71-.02-1.05-.08-.21-.03-.39-.17-.47-.36-.08-.19-.06-.42.06-.59.02-.03,2.17-3.17,1-5.41-.08-.16-.09-.36-.02-.52.07-.17.22-.3.39-.35.3-.09,7.49-2.11,15.43-1.59.34.02.59.31.57.65-.02.34-.31.59-.65.57-6.37-.42-12.39.89-14.35,1.37.58,1.89-.24,3.95-.84,5.09,1.55-.02,3.09-.55,3.11-.56.32-.11.67.06.78.37.11.32-.05.67-.37.78-.09.03-1.8.63-3.59.63Z"/><path class="cls-4" d="M16,11.46s.52,3.18-2.17,5.34"/><path class="cls-2" d="M13.83,17.42c-.18,0-.36-.08-.48-.23-.21-.26-.17-.65.09-.86,2.39-1.92,1.96-4.74,1.95-4.77-.05-.33.17-.65.51-.7.33-.06.65.17.7.51.02.14.54,3.56-2.39,5.92-.11.09-.25.13-.38.13Z"/><path class="cls-1" d="M6.24,11.79c-.1,0-.2-.02-.29-.06-.36-.16-.52-.58-.36-.94.04-.09,1.05-2.33,3.18-4.5,2.86-2.91,6.38-4.28,10.17-3.98.39.03.69.38.66.77-.03.39-.37.69-.77.66-8.16-.65-11.9,7.56-11.94,7.64-.12.27-.38.42-.65.42Z"/><path class="cls-1" d="M27.16,8.73c-.22,0-.44-.1-.58-.3l-.83-1.14-.94.81c-.3.26-.75.23-1.01-.07-.26-.3-.22-.75.07-1.01l1.53-1.32c.15-.13.35-.19.55-.17.2.02.38.13.5.29l1.29,1.77c.23.32.16.77-.16,1-.13.09-.27.14-.42.14Z"/><path class="cls-1" d="M14.94,21.42c-.09,0-.19-.02-.28-.06-.36-.15-.53-.57-.38-.94.35-.82.64-1.76.65-2.06-.08-.19-.07-.41.02-.59.12-.23.35-.38.6-.39l5.14-.24c.4-.02.73.29.75.68.02.39-.29.73-.68.75l-4.45.21c-.08.48-.28,1.18-.72,2.2-.12.27-.38.44-.66.44Z"/><path class="cls-1" d="M26.95,9.92c-.07,0-.13-.02-.19-.06l-.9-.7c-.13-.1-.16-.3-.06-.43.1-.13.3-.16.43-.06l.77.59.82-.29c.16-.06.33.03.39.19.06.16-.03.33-.19.39l-.97.35s-.07.02-.1.02Z"/><path class="cls-1" d="M8.67,10.58c-.06,0-.11-.02-.16-.05-.14-.09-.19-.28-.1-.42.12-.2,3.07-4.82,6.69-5.21.17-.02.32.1.34.27.02.17-.1.32-.27.34-3.32.36-6.21,4.89-6.24,4.93-.06.09-.16.14-.26.14Z"/><path class="cls-1" d="M18.19,19.86h-1.49c-.17,0-.31-.14-.31-.31s.14-.31.31-.31h1.49c.17,0,.31.14.31.31s-.14.31-.31.31Z"/></svg>