<?xml version="1.0" encoding="UTF-8"?><svg xmlns="http://www.w3.org/2000/svg" viewBox="0 0 841.89 595.28"><defs><style>.cls-1{fill:#fff;}.cls-2{fill:#f90000;}.cls-3{fill:#3e47ff;}.cls-4{fill:#00f2e6;}</style></defs><g id="Laag_3"><circle cx="260.3" cy="179.34" r="18.21"/><circle cx="433.63" cy="180.69" r="12.69"/><circle cx="432.04" cy="145.3" r="6.34"/><circle cx="473.23" cy="147.4" r="6.34" transform="translate(-21.21 112.67) rotate(-13.28)"/><circle cx="224.76" cy="160.09" r="9.33"/><circle cx="244.47" cy="118.4" r="6.34"/><circle cx="287.02" cy="157.99" r="6.34" transform="translate(-27.65 249.23) rotate(-45)"/><circle cx="214.61" cy="137.25" r="12.5" transform="translate(-19.21 36.15) rotate(-9.22)"/><circle cx="547.7" cy="175.92" r="10.33" transform="translate(36.03 438.81) rotate(-45)"/><circle cx="606.13" cy="207.76" r="11.19"/><circle cx="605.55" cy="161.74" r="4.79" transform="translate(-18.09 99.09) rotate(-9.22)"/><circle cx="631.34" cy="189.06" r="4.79" transform="translate(-26.55 150.11) rotate(-13.28)"/><circle cx="703.15" cy="156.96" r="4.79"/><circle cx="732.51" cy="200.58" r="4.79"/><circle cx="750.89" cy="262.53" r="7.28"/><path d="M752.69,307.09c0-8.55-6.93-15.48-15.48-15.48-6.18,0-11.49,3.63-13.97,8.86-3.52-1.81-7.5-2.83-11.73-2.83-.14,0-.28,0-.42.01,6.5-11.8,13.61-23.59,19.76-33,2.13-3.26,2.62-7.32,1.33-10.98s-4.21-6.53-7.91-7.73c-8.87-2.9-16.75-6.05-23.73-9.25,3.25-3.05,5.3-7.38,5.3-12.19,0-9.24-7.49-16.72-16.72-16.72-8.11,0-14.87,5.78-16.4,13.44-3.96-2.63-7.16-4.96-9.64-6.76-6.54-4.75-10.86-7.89-17.34-6.31-3.71.9-6.82,3.38-8.53,6.8-1.38,2.76-2.62,5.24-.11,23.41-16.22-3.7-33.34-1.42-50.51,6.86-3.4,1.64-6.59,3.42-9.52,5.23-1.92-3.33-4.12-6.27-6.49-8.89,4.42-4.34,7.16-10.38,7.16-17.06,0-13.2-10.7-23.91-23.91-23.91-4.72,0-9.12,1.37-12.82,3.73.08-.63.13-1.27.13-1.92,0-8.42-6.82-15.24-15.24-15.24s-15.24,6.82-15.24,15.24,6.82,15.24,15.24,15.24c1.88,0,3.68-.36,5.34-.98-.52,1.51-.9,3.09-1.11,4.72-17.58-1.8-34.29,1.47-49.47,9.57-.4-1.42-1.05-2.79-1.96-4.02-2.73-3.71-7.28-5.62-11.84-4.97-10.02,1.43-26.34,2.17-38,2.53-.09-.15-.15-.3-.24-.45-2.31-3.64-6.35-5.85-10.65-5.79-4.22.04-8.41.03-12.54-.02,1.59-2.87,2.51-6.16,2.51-9.67,0-11.02-8.93-19.95-19.95-19.95-.5,0-.99.04-1.48.07,0-.03,0-.06-.01-.09.12,0,.23.02.35.02,11.38,0,20.6-9.22,20.6-20.6s-9.22-20.6-20.6-20.6c-10.33,0-18.87,7.62-20.35,17.54-2.95-.98-6.1-1.52-9.38-1.52-12.19,0-22.66,7.34-27.25,17.84-3.77-2.23-8.17-3.51-12.87-3.51-14.02,0-25.38,11.36-25.38,25.38,0,4.77,1.32,9.22,3.6,13.03-.33.52-.63,1.06-.89,1.63-.68,1.52-1.48,3.15-2.3,4.7-1.36.22-2.67.65-3.89,1.3-5.43-5.6-12.04-9.54-19.57-11.63-25.77-7.14-53.8,9.28-58.07,11.93-2.07,1.19-11.62,6.97-22.09,17.88-4.98-9.23-14.74-15.5-25.96-15.5-6.15,0-11.86,1.89-16.59,5.11.14-1,.22-2.03.22-3.07,0-12.09-9.8-21.89-21.89-21.89s-21.89,9.8-21.89,21.89c0,1.62.18,3.2.52,4.72-7.25,1.23-12.78,7.52-12.78,15.12,0,8.48,6.87,15.35,15.35,15.35,7.89,0,14.38-5.95,15.25-13.6,1.15.19,2.34.29,3.55.29,3.55,0,6.9-.85,9.86-2.35-.7,2.51-1.08,5.16-1.08,7.9,0,4.81,1.16,9.34,3.2,13.35-1.04-.2-2.11-.32-3.2-.32-9.08,0-16.44,7.36-16.44,16.44s7.36,16.44,16.44,16.44,16.44-7.36,16.44-16.44c0-1.1-.11-2.17-.32-3.2,3.98,2.03,8.48,3.18,13.24,3.2-.97,3.05-1.85,6.21-2.59,9.5-5.65,25.27-3.23,43.06,3.53,56.14-16.78.27-30.31,13.95-30.31,30.8s13.79,30.81,30.81,30.81c11.63,0,21.76-6.45,27-15.96,3.63,6.7,10.72,11.25,18.87,11.25,11.84,0,21.45-9.6,21.45-21.45,0-1.21-.12-2.38-.32-3.53,5.26-1.71,10.05-4.1,14.17-6.6,1.86.31,3.79.2,5.66-.36.76-.14,1.98-.24,3.54-.3-5.92,4.87-9.69,12.25-9.69,20.5,0,14.66,11.88,26.54,26.54,26.54,7.99,0,15.15-3.54,20.02-9.12,2.83,1.06,5.89,1.65,9.09,1.65,14.29,0,25.87-11.58,25.87-25.87,0-5.33-1.61-10.28-4.37-14.39l50.5-2.05c.15,0,.3-.02.45-.03.07,0,.14,0,.22-.02.43-.04.86-.1,1.28-.19.01,0,.02,0,.03,0-.17,1.37-.27,2.76-.27,4.17,0,4.11.76,8.04,2.15,11.67-2.39-1.3-5.13-2.05-8.04-2.05-9.28,0-16.8,7.52-16.8,16.8s7.52,16.8,16.8,16.8,16.8-7.52,16.8-16.8c0-.73-.06-1.44-.15-2.15,5.82,5.28,13.54,8.5,22.02,8.5,13.94,0,25.84-8.71,30.58-20.98,3.93,4.61,9.77,7.54,16.31,7.54,10.29,0,18.88-7.25,20.96-16.92,1.07-.24,2.11-.62,3.09-1.14,16.45,6.34,32.64,4.29,45.22.29.19.37.39.71.58,1.03,3.53,5.76,11.04,9.58,22.34,11.36,2.12.33,6,.81,10.74.84-1.33,4-2.06,8.27-2.06,12.72,0,20.28,14.96,37.06,34.45,39.91-1.41,2.85-2.22,6.06-2.22,9.45,0,11.84,9.6,21.45,21.45,21.45s21.45-9.6,21.45-21.45c0-7.46-3.81-14.03-9.59-17.87,5.87-4.7,10.4-11.01,12.91-18.26,3.03,2.07,6.69,3.28,10.64,3.28,10.43,0,18.89-8.46,18.89-18.89,0-3.1-.76-6.02-2.09-8.61,5.71-.34,12.37-.91,20.16-1.78,10.59-1.18,18.43-12.65,20.58-16.13,5.86-9.49,7.48-19.08,4.57-26.99-.02-.05-.04-.09-.06-.14,1.93.46,3.94.71,6.01.71,14.2,0,25.7-11.51,25.7-25.7,0-.26-.01-.52-.02-.78,0,0,.01,0,.02,0,8.55,0,15.48-6.93,15.48-15.48Z"/><circle cx="751.77" cy="350.83" r="12.85"/><circle cx="666.77" cy="455.09" r="10.81" transform="translate(-64.29 112.68) rotate(-9.22)"/><circle cx="703.09" cy="406.74" r="6.5"/><circle cx="728.24" cy="475.17" r="6.5"/><circle cx="393.23" cy="429.23" r="6.5"/><circle cx="573.69" cy="468.67" r="6.5"/><circle cx="479.43" cy="442.76" r="5.21"/><circle cx="514.7" cy="453.18" r="5.21" transform="translate(-90.35 130.38) rotate(-13.28)"/><circle cx="481.4" cy="480.38" r="5.21" transform="translate(-97.49 123.46) rotate(-13.28)"/><circle cx="373.15" cy="444.7" r="5.21"/><circle cx="501.45" cy="418.4" r="19.15"/><circle cx="331.96" cy="424.74" r="7.66" transform="translate(-88.7 87.63) rotate(-13.28)"/><circle cx="238.76" cy="447.15" r="7.66" transform="translate(-96.35 66.82) rotate(-13.28)"/><circle cx="201.23" cy="432.4" r="15.32" transform="translate(-275.26 452.84) rotate(-67.5)"/><circle cx="258.26" cy="470.74" r="5.21"/><circle cx="146.09" cy="439.49" r="5.21" transform="translate(-267.98 232.02) rotate(-45)"/><circle cx="130.77" cy="345.83" r="5.21" transform="translate(-206.24 193.76) rotate(-45)"/><circle cx="78.48" cy="263.7" r="11.57"/><path d="M164.28,201.15c4.1-1.04,6.59-5.2,5.55-9.3-1.04-4.1-5.2-6.59-9.3-5.55-4.1,1.04-6.59,5.2-5.55,9.3,1.04,4.1,5.2,6.59,9.3,5.55Z"/><path d="M139,180.68c2.79-.71,4.48-3.54,3.77-6.33-.71-2.79-3.54-4.48-6.33-3.77-2.79.71-4.48,3.54-3.77,6.33.71,2.79,3.54,4.48,6.33,3.77Z"/></g><g id="Laag_2"><path class="cls-3" d="M565.15,275.68s42.38-45.45,87.83-17.36c0,0-6.13-34.72-4.6-37.79s21.96,20.94,72,37.28c0,0-41.36,63.32-41.87,87.83,0,0,11.74-2.55,15.32,7.15s-8.68,25.69-14.81,26.38-40.34,4.42-47.49,0,8.17-18.21,8.17-18.21c0,0-17.11,17.49-38.04,17.36s-51.96-37.79-51.96-37.79l15.45-64.85Z"/><path class="cls-2" d="M647.63,384.3c-8.04,0-14.62-.7-17.67-2.59-1.96-1.21-3.09-3.02-3.29-5.22-.07-.73-.01-1.49.13-2.26-6.8,3.79-15.43,7.08-24.9,7.08-.08,0-.16,0-.25,0-22.09-.13-52.95-37.3-54.25-38.88-.6-.72-.82-1.69-.6-2.6l15.45-64.85c.12-.51.37-.97.72-1.35.45-.48,11.17-11.87,27.76-19.87,20.16-9.72,40.16-10.08,58.24-1.11-3.35-19.83-4.45-31.08-3.25-33.46.46-.92,1.29-1.58,2.28-1.82,2.21-.54,4.05.8,9.51,4.76,9.71,7.06,29.92,21.75,63.83,32.82.89.29,1.59.98,1.9,1.86s.19,1.85-.32,2.64c-.39.6-37.32,57.38-41.08,82.86h.02c5.23,0,12.06,1.97,14.82,9.44,1.86,5.04.5,11.87-3.74,18.72-3.36,5.43-8.85,11.15-13.55,11.68-10.28,1.15-22.06,2.16-31.73,2.16ZM640.17,364.64c-3.68,3.66-7.76,8.89-7.54,11.31.02.2.04.39.47.66,3.88,2.4,21.77,2.23,45.58-.43,1.64-.18,5.72-3.37,9.12-8.87,3.21-5.2,4.41-10.24,3.21-13.49-2.61-7.1-11.5-5.33-11.88-5.25-.9.19-1.83-.04-2.54-.63s-1.11-1.46-1.09-2.37c.46-22.11,31.7-72.68,40.26-86.15-32.6-11.2-52.21-25.46-61.82-32.44-.94-.68-1.89-1.37-2.74-1.98.47,6.52,2.52,20.33,4.72,32.79.21,1.16-.29,2.34-1.27,3-.98.66-2.25.69-3.26.07-17.87-11.04-37.35-11.64-57.92-1.78-13.63,6.54-23.29,15.77-25.61,18.09l-14.91,62.58c9.21,10.87,33.27,35.46,48.71,35.56.07,0,.14,0,.21,0,16.02,0,29.85-11.17,34.23-15.11.69-.68,1.25-1.19,1.58-1.48,1.2-1.08,3.05-1.01,4.17.15,1.12,1.17,1.11,3.02-.02,4.17-.12.12-.7.71-1.67,1.59Z"/><path class="cls-2" d="M611.45,326.34c-.57,0-1.15-.16-1.67-.51-1.38-.92-1.75-2.78-.83-4.16,6.94-10.38,13.05-23.88,10.82-27.6-.85-1.42-.39-3.26,1.03-4.12,1.42-.85,3.26-.39,4.12,1.03,5.31,8.84-8.21,29.89-10.97,34.02-.58.87-1.53,1.33-2.5,1.33Z"/><path class="cls-2" d="M634.25,314.94c-.47,0-.94-.11-1.38-.34-16.22-8.43-31.21-5.43-31.36-5.39-1.61.34-3.21-.7-3.55-2.32-.34-1.62.7-3.21,2.32-3.55.7-.15,17.26-3.47,35.36,5.94,1.47.76,2.04,2.58,1.28,4.04-.53,1.03-1.58,1.62-2.67,1.62Z"/><path class="cls-3" d="M445.69,286s27.03-60.87,87.29-51.68c0,0,33.19,5.62,38.3,36.77s-6.13,50.55-6.13,50.55c0,0-4.6,6.64-5.62,15.83s3.57,13.28,3.57,13.28c0,0,12.77,1.53,15.32,5.62s12.26,6.05,0,16.56-40.85,5.83-44.43,0c-2.68-4.37,1.53-11.21,3.8-14.36.23-.32-.14-.73-.48-.52-7.59,4.75-38.09,21.53-65.36,3.15-31.42-21.17-59.95-40.87-26.28-75.19Z"/><path class="cls-2" d="M556.72,382.17c-3.33,0-6.59-.28-9.56-.74-3.82-.6-12.98-2.48-15.72-6.94-1.78-2.91-1.53-6.34-.45-9.55-13.49,6.51-37.98,14.06-60.7-1.26-20.03-13.5-40.74-27.46-42.62-45.99-1.08-10.63,4-21.56,15.51-33.41,1.33-2.84,8.21-16.67,21.45-29.7,19.4-19.1,43.19-27.13,68.8-23.22.4.07,35.42,6.36,40.81,39.25,5.22,31.84-6.01,51.71-6.49,52.54-.04.07-.08.14-.13.21-.04.05-4.18,6.18-5.1,14.45-.63,5.64,1.16,8.86,2.1,10.12,4.22.6,13.58,2.4,16.36,6.85.35.55,1.17,1.26,1.97,1.94,1.92,1.64,4.54,3.88,4.55,7.51,0,3.33-2.25,6.81-7.11,10.97-5.99,5.14-15.08,6.97-23.66,6.97ZM537.51,354.99c.91,0,1.8.37,2.46,1.06,1.1,1.17,1.21,2.97.27,4.27-3.43,4.74-4.87,9.08-3.68,11.03.5.81,4.09,2.97,11.53,4.15,8.86,1.39,21.6.96,28.38-4.86,4.53-3.88,5.01-5.78,5.01-6.41,0-.81-.97-1.7-2.44-2.96-1.14-.97-2.32-1.98-3.16-3.32-1.05-1.68-7.77-3.58-13.13-4.23-.61-.07-1.18-.33-1.63-.74-.24-.21-5.74-5.24-4.56-15.85,1.02-9.22,5.34-16.01,6.04-17.07.7-1.29,10.42-19.82,5.72-48.5-4.69-28.61-34.57-34.08-35.84-34.29-57.28-8.73-83.78,49.36-84.04,49.94-.15.33-.35.63-.6.88-10.45,10.65-15.09,20.13-14.19,28.98,1.59,15.74,21.12,28.89,40,41.62,25.47,17.16,53.96,1.88,62.09-3.21.55-.34,1.17-.51,1.78-.51ZM445.69,286h0,0Z"/><path class="cls-2" d="M509.49,317.2c-.52,0-1.04-.13-1.52-.42-1.43-.84-1.9-2.68-1.05-4.11,11.07-18.71,6.59-28.39,6.54-28.49-.72-1.47-.13-3.27,1.33-4.01,1.46-.74,3.23-.2,4,1.25.26.5,6.25,12.39-6.71,34.3-.56.95-1.56,1.47-2.58,1.47Z"/><path class="cls-2" d="M529.91,304.85c-.54,0-1.08-.14-1.57-.44-15.82-9.73-20.59-4.9-20.64-4.85.06-.07.09-.11.09-.11l-4.78-3.63c.74-.98,7.85-9.2,28.47,3.48,1.41.87,1.85,2.71.98,4.13-.57.92-1.55,1.43-2.56,1.43Z"/><path class="cls-3" d="M415.16,237.3s35.61-.43,53.48-2.98c0,0-36.26,76.09-33.19,85.79,0,0,15.32-43.91,41.36-34.21s11.74,42.38,11.74,42.38c0,0-18.89,26.55-16.85,38.81,0,0-49.02-17.36-100.09-6.64l4.6-41.87s-1.02-13.28,8.68-17.87,1.53-60.77,1.53-60.77l28.73-2.64Z"/><path class="cls-2" d="M471.7,370.08c-.34,0-.67-.06-1-.17-.48-.17-48.87-16.95-98.47-6.53-.94.2-1.92-.07-2.63-.71-.71-.65-1.07-1.59-.97-2.55l4.57-41.62c-.11-2.25-.27-15.45,10.41-20.51.04-.02,4.22-2.32,2.7-29.19-.81-14.32-2.83-28.29-2.85-28.43-.12-.81.1-1.64.61-2.29.51-.65,1.26-1.06,2.08-1.13l28.73-2.64c.08,0,.16-.01.24-.01.35,0,35.62-.45,53.09-2.95,1.09-.16,2.19.3,2.84,1.19.66.89.77,2.07.29,3.07-10.18,21.36-20.25,44.3-26.56,60.84,3.94-5.18,8.8-9.94,14.54-12.64,6.01-2.83,12.25-3.07,18.54-.73,7.39,2.75,12.54,7.46,15.31,13.99,5.99,14.13-1.54,31.67-1.86,32.4-.08.19-.18.37-.3.54-5.05,7.11-17.84,27.54-16.34,36.58.17,1.05-.22,2.11-1.03,2.79-.55.46-1.23.7-1.93.7ZM407.05,353.92c28.68,0,52.44,6.25,61.63,9.04,1.44-13.23,14.79-32.68,17.23-36.14.85-2.1,6.36-16.51,1.72-27.42-2.1-4.94-6.09-8.54-11.87-10.69-4.79-1.78-9.33-1.61-13.88.53-14.73,6.91-23.51,31.61-23.6,31.86-.43,1.22-1.6,2-2.88,2.01-1.29-.02-2.43-.86-2.81-2.1-.67-2.13-2.25-7.13,15.55-48.62,5.99-13.95,12.21-27.45,15.48-34.44-18.23,1.92-45.89,2.31-48.3,2.34l-25.5,2.34c.65,5,1.88,15.3,2.47,25.79,1.57,27.7-2.44,33.25-6.12,34.99-7.69,3.64-6.98,14.83-6.97,14.94.01.18.01.37,0,.55l-4.15,37.82c11-2.01,21.81-2.8,32.01-2.8Z"/><path class="cls-3" d="M296.1,238.6c4.14-3.38,9.65-15.72,9.65-15.72,0,0,52.09,8.37,112.34,7.86,0,0-16.34,34.21-15.83,54.64,0,0-13.28-5.62-24,6.13s-13.79,27.57-13.79,27.57c0,0,13.28-10.21,16.34-7.15s8.17,12.26-9.19,48.51l-87.83,3.57-25.53-28.09,29.11-25.53,16.85,1.53s16.85-29.62,1.02-45.96c-15.83-16.34-9.14-27.38-9.14-27.38Z"/><path class="cls-2" d="M283.79,367.02c-.84,0-1.65-.36-2.22-.98l-25.53-28.08c-.54-.59-.82-1.38-.78-2.19s.41-1.56,1.02-2.09l29.11-25.53c.62-.54,1.44-.81,2.25-.73l14.85,1.35c3.09-6.24,12.65-28.26.6-40.7-17.24-17.8-9.87-30.49-9.55-31.02.18-.29.4-.55.67-.77,2.61-2.13,6.79-10.1,8.81-14.62.55-1.24,1.87-1.95,3.21-1.74.52.08,52.56,8.32,111.84,7.82h.03c1.02,0,1.98.52,2.53,1.39.56.87.62,1.97.18,2.9-.16.34-16.02,33.81-15.54,53.27.03,1.02-.47,1.98-1.31,2.56-.84.57-1.92.68-2.86.28-.45-.19-11.51-4.58-20.62,5.39-5.39,5.9-8.75,12.99-10.72,18.29,5.23-3.08,10.4-4.79,13.18-2.01,7.4,7.4,4.58,24.38-8.61,51.93-.48,1-1.47,1.66-2.58,1.7l-87.83,3.57s-.08,0-.12,0ZM262.53,336.18l22.54,24.79,84.62-3.44c14.56-30.94,11.63-40.39,9.28-43.17-1.94.09-7.77,3.34-12.67,7.11-.99.76-2.34.83-3.4.17-1.06-.66-1.61-1.9-1.37-3.12.13-.68,3.35-16.8,14.52-29.03,7.64-8.36,17.1-9.18,23.3-8.05,1.03-16.5,10-38.46,14.07-47.68h-.57c-50.65,0-95.01-6.06-105.33-7.58-1.77,3.7-5.55,11.06-9.01,14.29-.82,1.84-3.6,10.54,8.88,23.42,17.2,17.75.17,48.24-.57,49.53-.58,1.02-1.72,1.62-2.88,1.5l-15.57-1.42-25.84,22.67Z"/><path class="cls-3" d="M285.83,241.98l8.17-7.15,20.43,36.77s-24,11.74-28.6,24h14.3s-4.6,33.7-2.55,35.74l-22.98,2.55,9.19,30.13s-30.64-2.04-36.77,0l4.09-8.17s-25.02,26.04-49.02,13.79-39.83-28.6-30.13-72,44.94-62.81,44.94-62.81c0,0,49.53-31.15,68.94,7.15Z"/><path class="cls-2" d="M215.82,375.96c-4.91,0-10.01-1.05-15.1-3.65-26.14-13.35-41.54-31.27-31.69-75.33,9.75-43.63,44-63.43,46.34-64.74,1.9-1.18,28.18-17.16,50.67-10.93,8.67,2.4,15.58,7.77,20.61,15.97l5.38-4.71c.68-.6,1.6-.85,2.49-.7.89.16,1.67.71,2.11,1.5l20.43,36.77c.4.72.49,1.57.24,2.36-.25.78-.8,1.43-1.54,1.8-5.44,2.67-18.84,10.42-24.78,18.31h9.17c.87,0,1.69.37,2.26,1.03.57.65.83,1.52.71,2.38-1.92,14.06-3.55,30.75-2.93,33.83.44.75.53,1.66.24,2.5-.38,1.09-1.35,1.86-2.5,1.99l-19.39,2.15,8.14,26.67c.29.94.09,1.97-.52,2.74-.61.77-1.56,1.2-2.55,1.13-11.62-.77-31.56-1.5-35.62-.15-1.15.39-2.42.04-3.21-.88-.15-.17-.28-.36-.38-.55-6.93,4.96-17.24,10.53-28.55,10.53ZM254.98,225.88c-17.94,0-36.27,11.35-36.49,11.49-.05.03-.1.06-.15.09-.34.19-34.18,19.34-43.46,60.83-9.04,40.43,4.23,56.25,28.56,68.67,21.71,11.08,45.26-12.95,45.5-13.2,1.03-1.07,2.68-1.22,3.89-.37,1.21.85,1.61,2.46.95,3.79l-1.55,3.1c8-.49,20.43.07,27.42.47l-7.93-25.99c-.26-.85-.13-1.78.36-2.52.49-.75,1.29-1.23,2.17-1.33l19.88-2.21c-.21-4.3.27-12.79,2.56-30.11h-10.87c-.98,0-1.91-.48-2.47-1.29-.56-.81-.69-1.84-.34-2.76,4.01-10.7,20.58-20.56,27.29-24.18l-17.12-30.83-5.38,4.7c-.7.61-1.64.86-2.55.69-.91-.18-1.69-.76-2.11-1.59-4.32-8.53-10.61-13.99-18.7-16.23-3.07-.85-6.27-1.22-9.47-1.22ZM299.7,329.22s0,0,0,0c0,0,0,0,0,0Z"/><path class="cls-3" d="M241.74,330.32s-11.57,4.09-21.27,2.55c0,0,11.74-16.85,5.11-29.62,0,0,35.74-10.21,74.55-7.66"/><path class="cls-2" d="M225.15,336.22c-1.72,0-3.46-.11-5.15-.38-1.02-.16-1.89-.84-2.29-1.79-.41-.95-.29-2.04.3-2.89.1-.15,10.62-15.53,4.91-26.52-.42-.8-.45-1.74-.09-2.57.36-.83,1.06-1.45,1.93-1.7,1.48-.42,36.7-10.33,75.57-7.77,1.65.11,2.91,1.54,2.8,3.19-.11,1.65-1.54,2.91-3.19,2.8-31.18-2.05-60.7,4.35-70.29,6.71,2.84,9.28-1.17,19.32-4.11,24.92,7.6-.08,15.13-2.69,15.22-2.73,1.56-.55,3.27.27,3.83,1.83.55,1.56-.27,3.27-1.83,3.83-.42.15-8.81,3.07-17.59,3.07Z"/><path class="cls-4" d="M241.74,275.68s2.55,15.58-10.64,26.17"/><path class="cls-2" d="M231.1,304.85c-.88,0-1.75-.38-2.34-1.12-1.04-1.29-.83-3.18.46-4.22,11.69-9.39,9.58-23.21,9.56-23.35-.27-1.63.84-3.18,2.48-3.44,1.63-.27,3.18.84,3.44,2.48.12.71,2.67,17.44-11.72,29-.55.45-1.22.66-1.88.66Z"/></g><g id="Laag_4"><path class="cls-1" d="M193.91,277.31c-.48,0-.96-.1-1.42-.3-1.77-.79-2.56-2.85-1.78-4.62.21-.46,5.14-11.43,15.6-22.05,14-14.24,31.23-20.98,49.84-19.5,1.93.15,3.37,1.84,3.21,3.77-.15,1.93-1.83,3.37-3.77,3.21-39.96-3.18-58.3,37.02-58.48,37.42-.58,1.3-1.86,2.08-3.2,2.08Z"/><path class="cls-1" d="M296.39,262.33c-1.08,0-2.15-.5-2.84-1.45l-4.06-5.6-4.61,3.98c-1.46,1.26-3.67,1.1-4.94-.36-1.26-1.46-1.1-3.67.36-4.94l7.49-6.47c.74-.64,1.72-.94,2.69-.83.97.11,1.85.63,2.43,1.42l6.3,8.68c1.14,1.56.79,3.75-.78,4.89-.62.45-1.34.67-2.05.67Z"/><path class="cls-1" d="M236.52,324.46c-.46,0-.92-.09-1.36-.28-1.78-.75-2.61-2.81-1.86-4.59,1.71-4.04,3.13-8.6,3.16-10.08-.38-.93-.34-1.98.12-2.9.57-1.13,1.7-1.86,2.96-1.92l25.19-1.19c1.94-.1,3.57,1.4,3.66,3.33.09,1.93-1.4,3.57-3.33,3.66l-21.81,1.03c-.38,2.35-1.38,5.76-3.51,10.79-.56,1.33-1.86,2.14-3.22,2.14Z"/><path class="cls-1" d="M371.63,245.6c-13.43,0-46.12-6.13-57.43-8.33l-3.65,5.6c-1.05,1.62-3.22,2.08-4.84,1.02-1.62-1.05-2.08-3.22-1.02-4.84l4.94-7.58c.78-1.2,2.21-1.8,3.61-1.52,26.44,5.23,56.47,9.85,60.96,8.51,1.85-.55,3.8.5,4.35,2.36s-.5,3.8-2.36,4.35c-1.01.3-2.58.44-4.56.44Z"/><path class="cls-1" d="M306.26,325.65c-1.35,0-2.64-.79-3.21-2.1-.77-1.77.03-3.82,1.79-4.6.16-.07,8.11-3.77,11.58-13.16.67-1.81,2.68-2.74,4.5-2.07,1.81.67,2.74,2.68,2.07,4.5-4.55,12.32-14.89,16.95-15.33,17.15-.46.2-.93.29-1.4.29Z"/><path class="cls-1" d="M416.72,266.42c-.6,0-1.21-.16-1.77-.48-1.67-.98-2.22-3.12-1.25-4.79,3.76-6.39,6.96-13.24,7.03-15.02-.11-.97.19-1.95.83-2.69.66-.77,1.63-1.21,2.64-1.21h15.49c1.93,0,3.5,1.57,3.5,3.5s-1.57,3.5-3.5,3.5h-12.55c-1.39,4.78-4.99,11.35-7.41,15.46-.65,1.11-1.82,1.73-3.02,1.73ZM420.74,246.18s0,.03,0,.04c0-.01,0-.03,0-.04Z"/><path class="cls-1" d="M385.75,352.88c-1.33,0-2.58-.76-3.17-2.01-.72-1.54-.23-3.39,1.17-4.36,1.49-1.21,4.17-9.18,5.71-17.03.37-1.9,2.21-3.12,4.11-2.76,1.9.37,3.13,2.21,2.76,4.11-.61,3.12-1.86,8.76-3.7,13.57,3.58-.51,7.67-.75,10.71.08,1.87.51,2.96,2.43,2.46,4.3-.51,1.87-2.43,2.96-4.3,2.46-3.41-.93-10.9.45-14.83,1.53-.31.09-.62.13-.93.13Z"/><path class="cls-1" d="M445.49,324.63c-.38,0-.76-.06-1.14-.19-1.83-.63-2.8-2.62-2.18-4.44.29-.84,7.18-20.63,19.17-26.29,4.02-1.9,8.15-2.08,12.26-.54,1.81.68,2.73,2.7,2.05,4.51-.68,1.81-2.7,2.73-4.51,2.05-2.31-.86-4.53-.76-6.81.31-7.73,3.64-13.84,17.28-15.54,22.23-.5,1.45-1.86,2.36-3.31,2.36Z"/><path class="cls-1" d="M465.23,278.84c-.5,0-1-.11-1.48-.33-1.75-.82-2.5-2.9-1.68-4.65.67-1.43,16.9-35.02,57.96-35.2h.02c1.93,0,3.49,1.56,3.5,3.48,0,1.93-1.55,3.51-3.48,3.52-36.68.16-51.51,30.87-51.66,31.18-.6,1.27-1.86,2.01-3.17,2.01Z"/><path class="cls-1" d="M545.32,372.46c-1.93,0-3.5-1.57-3.5-3.5,0-1.01.43-1.92,1.12-2.56.77-1.27,2.35-5.01,2.47-6.07.15-1.93,1.83-3.37,3.77-3.21,1.93.15,3.36,1.85,3.21,3.77-.14,1.74-1.14,4.28-1.95,6.11-1.46,3.29-2.61,5.45-5.11,5.45ZM545.31,365.46h0,0ZM545.31,365.46h0,0ZM545.32,365.46h0,0Z"/><path class="cls-1" d="M579.79,285.31c-.78,0-1.56-.26-2.21-.79-1.5-1.22-1.73-3.42-.51-4.92.3-.37,7.53-9.19,19-15.65,15.57-8.78,31.39-8.94,45.75-.48,1.67.98,2.22,3.13,1.24,4.79-.98,1.67-3.13,2.22-4.79,1.24-29.32-17.28-54.7,13.21-55.76,14.51-.69.85-1.7,1.29-2.72,1.29Z"/><path class="cls-1" d="M662.81,261.5c-1.84,0-3.38-1.43-3.49-3.29-.42-7.04-1.7-14.4-2.75-15.94-1.75-1.45-1.71-3.46-.9-4.75,1.74-2.79,4.18-1.67,8.6.37,2.18,1,5.18,2.44,8.92,4.26,6.36,3.09,12.76,6.29,12.82,6.33,1.73.86,2.43,2.97,1.57,4.7-.86,1.73-2.96,2.43-4.7,1.56-6.29-3.15-13.04-6.46-17.97-8.81.75,3.75,1.16,8.04,1.39,11.85.11,1.93-1.36,3.59-3.29,3.7-.07,0-.14,0-.21,0ZM656.72,242.39s0,0,0,0c0,0,0,0,0,0Z"/><path class="cls-1" d="M645.07,373.9c-1.02,0-2.04-.45-2.73-1.3-1.21-1.5-.98-3.7.52-4.91.08-.07,3.11-2.62,4.06-6.22.49-1.87,2.4-2.99,4.28-2.49,1.87.49,2.99,2.41,2.49,4.28-1.52,5.8-5.93,9.48-6.42,9.88-.65.52-1.42.78-2.2.78Z"/><path class="cls-1" d="M295.36,268.16c-.33,0-.65-.11-.91-.31l-4.43-3.4c-.66-.5-.78-1.45-.27-2.1.5-.66,1.45-.78,2.1-.27l3.78,2.91,4-1.43c.78-.28,1.64.13,1.92.91.28.78-.13,1.64-.91,1.92l-4.77,1.7c-.16.06-.33.09-.5.09Z"/><path class="cls-1" d="M205.83,271.39c-.27,0-.55-.07-.8-.23-.7-.44-.91-1.37-.47-2.07.61-.96,15.06-23.61,32.77-25.54.82-.09,1.56.51,1.65,1.33.09.82-.51,1.56-1.33,1.65-16.26,1.77-30.41,23.94-30.55,24.16-.29.45-.77.7-1.27.7Z"/><path class="cls-1" d="M252.47,316.84h-7.32c-.83,0-1.5-.67-1.5-1.5s.67-1.5,1.5-1.5h7.32c.83,0,1.5.67,1.5,1.5s-.67,1.5-1.5,1.5Z"/><path class="cls-1" d="M314.43,328.25c-.5,0-.99-.25-1.27-.71-.44-.7-.22-1.63.48-2.07,2.25-1.4,6.06-4.36,6.68-6.33.25-.79,1.09-1.22,1.88-.98.79.25,1.23,1.09.98,1.88-1.15,3.66-7.27,7.54-7.96,7.97-.25.15-.52.23-.79.23Z"/><path class="cls-1" d="M358.17,250.12c-.08,0-.15,0-.23-.02l-42.38-6.47c-.82-.12-1.38-.89-1.26-1.71s.89-1.38,1.71-1.26l42.38,6.47c.82.12,1.38.89,1.26,1.71-.11.74-.75,1.27-1.48,1.27Z"/><path class="cls-1" d="M396.3,342.37c-.21,0-.43-.04-.63-.14-.75-.35-1.08-1.24-.73-1.99l2.38-5.11c.35-.75,1.24-1.08,1.99-.72.75.35,1.08,1.24.73,1.99l-2.38,5.11c-.25.54-.8.87-1.36.87Z"/><path class="cls-1" d="M427.28,260.25c-.13,0-.26-.02-.39-.05-.8-.21-1.28-1.04-1.06-1.84l1.7-6.38c.17-.66.77-1.11,1.45-1.11h3.75c.83,0,1.5.67,1.5,1.5s-.67,1.5-1.5,1.5h-2.59l-1.41,5.27c-.18.67-.79,1.11-1.45,1.11Z"/><path class="cls-1" d="M453.83,323.65c-.17,0-.34-.03-.51-.09-.78-.28-1.18-1.14-.9-1.92.56-1.54,5.67-15.14,12.17-18.21.75-.35,1.64-.03,2,.72s.03,1.64-.72,2c-4.57,2.16-9.23,12.66-10.64,16.52-.22.61-.8.99-1.41.99Z"/><path class="cls-1" d="M482.34,270.37c-.12,0-.25-.02-.38-.05-.8-.21-1.28-1.03-1.07-1.83.12-.46,3.18-11.35,24.66-18.16.79-.25,1.63.19,1.88.98.25.79-.19,1.63-.98,1.88-19.92,6.31-22.64,15.96-22.66,16.05-.18.68-.78,1.12-1.45,1.12Z"/><path class="cls-1" d="M553.79,368.97s-.1,0-.14,0c-.82-.08-1.43-.81-1.35-1.64l.26-2.68c.08-.83.81-1.44,1.64-1.35.82.08,1.43.81,1.35,1.64l-.26,2.68c-.07.78-.73,1.36-1.49,1.36Z"/><path class="cls-1" d="M653.06,373.86c-.24,0-.48-.06-.7-.17-.73-.39-1.01-1.29-.63-2.03l1.62-3.06c.39-.73,1.29-1.01,2.03-.63.73.39,1.01,1.29.63,2.03l-1.62,3.06c-.27.51-.79.8-1.33.8Z"/><path class="cls-1" d="M671.1,260.84c-.72,0-1.35-.51-1.48-1.24l-.77-4.43c-.08-.5.08-1,.45-1.35.37-.34.88-.48,1.37-.37l6.21,1.45c.81.19,1.31.99,1.12,1.8-.19.81-.99,1.31-1.8,1.12l-4.01-.93.38,2.2c.14.82-.41,1.59-1.22,1.73-.09.02-.17.02-.26.02Z"/><path class="cls-1" d="M589.75,285.27c-.37,0-.73-.13-1.02-.4-.61-.56-.64-1.51-.08-2.12.77-.83,19.09-20.28,39.42-13.86.79.25,1.23,1.09.98,1.88-.25.79-1.09,1.23-1.88.98-18.51-5.85-36.14,12.85-36.32,13.04-.29.32-.7.48-1.1.48Z"/></g></svg>