<?xml version="1.0" encoding="UTF-8"?><svg id="Laag_2" xmlns="http://www.w3.org/2000/svg" viewBox="0 0 152 152"><defs><style>.cls-1{fill:#fff;}.cls-2{fill:#010101;}</style></defs><g id="Laag_1-2"><rect class="cls-2" width="152" height="152" rx="24.75" ry="24.75"/><rect x="17.64" y="39.93" width="116.72" height="72.14" rx="19.19" ry="19.19"/><path class="cls-1" d="M115.17,115.38H36.83c-12.4,0-22.5-10.09-22.5-22.5v-33.76c0-12.4,10.09-22.5,22.5-22.5h78.34c12.4,0,22.5,10.09,22.5,22.5v33.76c0,12.4-10.09,22.5-22.5,22.5ZM36.83,43.24c-8.76,0-15.88,7.12-15.88,15.88v33.76c0,8.76,7.12,15.88,15.88,15.88h78.34c8.76,0,15.88-7.12,15.88-15.88v-33.76c0-8.76-7.12-15.88-15.88-15.88H36.83Z"/><path class="cls-1" d="M122.89,96.29l-30.03-18.34,29.35-22.48c1.47-1.13,1.75-3.24.62-4.71-1.13-1.47-3.24-1.75-4.71-.62l-40.19,30.78c-1.14.87-2.73.87-3.87,0l-40.19-30.78c-1.47-1.13-3.58-.85-4.71.62-1.13,1.47-.85,3.58.62,4.71l29.35,22.48-30.03,18.34c-1.23.75-1.61,2.35-.86,3.57.49.8,1.35,1.24,2.22,1.24.46,0,.93-.12,1.35-.38l31.74-19.39,6.42,4.91c1.77,1.36,3.89,2.04,6.02,2.04s4.25-.68,6.02-2.03l6.42-4.91,31.74,19.39c1.23.75,2.83.36,3.57-.86.75-1.23.36-2.83-.86-3.57Z"/></g></svg>