<?xml version="1.0" encoding="UTF-8"?><svg id="Laag_2" xmlns="http://www.w3.org/2000/svg" viewBox="0 0 152 152"><defs><style>.cls-1{fill:#fff;}.cls-2{fill:#1d1d1b;}.cls-3{fill:#010101;}</style></defs><g id="Laag_1-2"><rect class="cls-3" y="0" width="152" height="152" rx="24.75" ry="24.75"/><rect class="cls-2" x="27.88" y="27.88" width="96.25" height="96.25" rx="21.87" ry="21.87"/><path class="cls-1" d="M102.25,129.12h-52.5c-14.82,0-26.88-12.06-26.88-26.88v-52.5c0-14.82,12.06-26.88,26.88-26.88h52.5c14.82,0,26.88,12.06,26.88,26.88v52.5c0,14.82-12.06,26.88-26.88,26.88ZM49.75,32.88c-9.3,0-16.88,7.57-16.88,16.88v52.5c0,9.3,7.57,16.88,16.88,16.88h52.5c9.3,0,16.88-7.57,16.88-16.88v-52.5c0-9.3-7.57-16.88-16.88-16.88h-52.5Z"/><circle cx="76.5" cy="76" r="21"/><path class="cls-1" d="M76.5,102c-14.34,0-26-11.66-26-26s11.66-26,26-26,26,11.66,26,26-11.66,26-26,26ZM76.5,60c-8.82,0-16,7.18-16,16s7.18,16,16,16,16-7.18,16-16-7.18-16-16-16Z"/><circle class="cls-1" cx="105" cy="47.5" r="7.5"/></g></svg>