<?xml version="1.0" encoding="UTF-8"?><svg id="Laag_2" xmlns="http://www.w3.org/2000/svg" viewBox="0 0 152 152"><defs><style>.cls-1{fill:#fff;}.cls-2{fill:#010101;}</style></defs><g id="Laag_1-2"><rect class="cls-2" width="152" height="152" rx="24.75" ry="24.75"/><path class="cls-1" d="M37.48,35.33l4.04-4.04c1.85-1.85,4.99-1.69,7.03.34l17.62,17.62c2.03,2.03,2.19,5.18.34,7.03l-4.66,4.66c-4.12,4.48-1.21,11.48,2.42,17.07,2.52,3.87,5.85,7.2,9.72,9.72,5.59,3.64,12.59,6.54,17.07,2.42l4.66-4.66c1.85-1.85,4.99-1.69,7.03.34l17.62,17.62c2.03,2.03,2.19,5.18.34,7.03l-4.04,4.04s-.98,1.28-2.79,2.79c-.18.17-.37.33-.58.46-3.48,2.7-9.5,5.75-17.29,3.39-11.94-3.62-26.36-6.57-42.27-22.9-16.33-15.91-19.28-30.33-22.9-42.27-2.36-7.79.69-13.8,3.39-17.29.14-.2.29-.4.46-.58,1.5-1.81,2.79-2.79,2.79-2.79Z"/></g></svg>