<?xml version="1.0" encoding="UTF-8"?><svg id="Laag_2" xmlns="http://www.w3.org/2000/svg" xmlns:xlink="http://www.w3.org/1999/xlink" viewBox="0 0 398.87 565.09"><defs><style>.cls-1{fill:#fff;}.cls-2{fill:none;}.cls-3{fill:#999;opacity:.25;}.cls-4{fill:#ccc;}.cls-5{fill:#b3b3b3;}.cls-6{fill:#e8e0e0;}.cls-7{fill:#cd201f;}.cls-8{clip-path:url(#clippath);}</style><clipPath id="clippath"><path class="cls-2" d="M229.03,235.22l-114.37.17c-20.42.03-36.27,18.38-33.93,39.31l28.9,259.16c1.99,17.8,16.6,31.24,33.98,31.24h170.84c17.38,0,32-13.44,33.98-31.24l28.9-259.16c2.33-20.92-13.51-39.28-33.93-39.31l-114.37-.17Z"/></clipPath></defs><g id="Laag_1-2"><path class="cls-1" d="M174.17,167.35c-13.85-22.24-27.34-43.13-41.02-64.7l-35.43,61.43c27.08.68,54.74,2.95,76.53,3.32l-.09-.05Z"/><path class="cls-6" d="M174.17,167.35c-13.85-22.24-41.02-64.7-41.02-64.7l31.65,64.54s-12.43-.21,9.37.16h0Z"/><path class="cls-7" d="M73.76,214.34c-41.14-24.75-54.94-33.63-62.64-40.46-5.22-4.6-8.82-10.21-10.36-16.23-1.23-4.59-.98-10.37.78-17.57,1.42-6.02,3.29-10.64,8.45-21.58,12.28-24.31,23.08-43.75,37.11-64.34,8.19-11.11,16.98-24.85,30.6-27.96,6.41-1.43,12.72-1.1,18.79,1.03,9.49,3.31,46.68,23.05,84.41,44.81,37.65,21.71,73.44,44.07,81.06,50.63,6.1,5.23,10.3,12.78,11.2,19.91.75,17.42-8.25,33.34-14.57,46.21-3.07,6.1-22.41,39.64-26.15,45.35-12.58,18.85-17.6,25.19-24.66,30.7-4.42,3.5-7.33,5.01-11.52,6.13-6.52,1.68-13.4,1.33-19.72-1-37.54-18.05-68.44-35.08-102.8-55.64h0ZM174.26,167.4c-13.85-22.24-27.3-43.22-40.97-64.79l-35.43,61.43c27.08.68,54.74,2.95,76.53,3.32l-.13.04Z"/><rect class="cls-4" x="136.22" y="92.72" width="297.06" height="45.11" rx="15.16" ry="15.16" transform="translate(166.74 -168.36) rotate(45.37)"/><rect class="cls-4" x="262.19" y="68.15" width="88.85" height="51.06" rx="23.95" ry="23.95" transform="translate(157.88 -190.34) rotate(45.37)"/><g class="cls-8"><path class="cls-4" d="M229.03,182.42l-150.99.22c-26.96.04-47.88,24.27-44.8,51.89l38.16,342.13c2.62,23.51,21.92,41.25,44.86,41.25h225.53c22.94,0,42.24-17.74,44.86-41.25l38.16-342.13c3.08-27.62-17.84-51.85-44.8-51.89l-150.99-.22Z"/><rect class="cls-5" x="207.51" y="258.11" width="43.03" height="284.09" rx="21.52" ry="21.52"/><rect class="cls-5" x="116.23" y="259.01" width="43.03" height="284.09" rx="21.52" ry="21.52" transform="translate(-44.09 17.97) rotate(-6.44)"/><rect class="cls-5" x="302.65" y="258.11" width="43.03" height="284.09" rx="21.52" ry="21.52" transform="translate(601.43 834.13) rotate(-173.56)"/><polygon class="cls-3" points="221.37 617.9 455.75 617.9 455.75 148.68 278.05 164.07 221.37 617.9"/></g></g></svg>